<svg width="44" height="45" viewBox="0 0 44 45" fill="none" xmlns="http://www.w3.org/2000/svg">
<path d="M14.28 10.4064C15.2708 10.388 16.2601 10.4896 17.2264 10.7089C18.04 10.8866 18.8125 11.2171 19.5028 11.683C20.1403 12.1463 20.6447 12.7691 20.9654 13.4889C21.3339 14.3741 21.5117 15.3271 21.4872 16.2856C21.529 17.3381 21.2603 18.3796 20.7143 19.2804C20.1399 20.1312 19.346 20.8106 18.4168 21.2467C19.6778 21.5867 20.7762 22.3654 21.5144 23.4429C22.2231 24.5845 22.5793 25.9098 22.5384 27.2529C22.5618 28.3238 22.3404 29.3858 21.891 30.3581C21.4757 31.2063 20.8676 31.9455 20.1153 32.5165C19.3409 33.0812 18.4693 33.499 17.544 33.7492C16.5845 34.0147 15.5932 34.148 14.5976 34.1455H3.66663V10.4064H14.28ZM13.6493 20.0079C14.4277 20.04 15.194 19.807 15.8228 19.3469C16.1239 19.0789 16.3582 18.7441 16.5068 18.3693C16.6555 17.9945 16.7144 17.5902 16.6789 17.1886C16.699 16.7195 16.6056 16.2525 16.4066 15.8273C16.2378 15.4887 15.9753 15.2058 15.6504 15.0121C15.3212 14.7988 14.9514 14.6561 14.5644 14.5931C14.1444 14.5117 13.717 14.4747 13.2893 14.4827H8.61863V20.0291H13.6493V20.0079ZM13.9215 30.1146C14.3923 30.121 14.8621 30.0702 15.3206 29.9634C15.7397 29.8708 16.1371 29.6988 16.4913 29.4567C16.8384 29.2146 17.1188 28.889 17.3066 28.5098C17.5243 28.0264 17.6244 27.4982 17.5985 26.9686C17.6457 26.4859 17.5818 25.9989 17.4116 25.5448C17.2415 25.0907 16.9696 24.6816 16.6169 24.3489C15.8692 23.7982 14.953 23.5254 14.0259 23.5775H8.61863V30.1146H13.9215Z" fill="#323538"/>
<path d="M29.5914 30.0272C29.9801 30.3875 30.4379 30.665 30.9371 30.8428C31.4364 31.0207 31.9665 31.0952 32.4954 31.0618C33.3339 31.083 34.1561 30.8279 34.8353 30.3358C35.3879 29.9765 35.8063 29.4448 36.0257 28.8233H39.9749C39.5541 30.5927 38.5265 32.1586 37.0708 33.2489C35.6743 34.1758 34.024 34.6452 32.3487 34.592C31.153 34.6077 29.9664 34.3829 28.8593 33.9311C27.8578 33.5134 26.9597 32.8821 26.2275 32.0812C25.4981 31.2421 24.9378 30.2698 24.5774 29.218C24.1728 28.0423 23.9747 26.8055 23.992 25.5623C23.9846 24.3399 24.1893 23.1255 24.597 21.973C25.1447 20.3518 26.1919 18.9457 27.5884 17.9566C28.9849 16.9675 30.6587 16.4461 32.3699 16.4674C33.6332 16.441 34.8825 16.7367 35.9999 17.3266C37.0101 17.8804 37.8814 18.6562 38.5485 19.5953C39.231 20.5808 39.7201 21.6869 39.99 22.8548C40.286 24.109 40.3915 25.4005 40.3031 26.6861H28.5402C28.4449 27.8939 28.8217 29.0916 29.5914 30.0272ZM34.7521 20.999C34.423 20.6697 34.027 20.4149 33.5911 20.2515C33.1551 20.0882 32.6892 20.0202 32.2247 20.0521C31.6085 20.0286 30.9967 20.1652 30.449 20.4484C30.0148 20.6875 29.6314 21.0091 29.3206 21.3953C29.0452 21.7573 28.84 22.1677 28.7156 22.6053C28.6036 22.9702 28.5335 23.3467 28.5069 23.7276H35.7927C35.7292 22.7348 35.3676 21.7843 34.7551 21.0005L34.7521 20.999Z" fill="#323538"/>
<path d="M36.6972 11.9912H27.5676V14.325H36.6972V11.9912Z" fill="#323538"/>
</svg>
