<svg width="44" height="45" viewBox="0 0 44 45" fill="none" xmlns="http://www.w3.org/2000/svg">
<path fill-rule="evenodd" clip-rule="evenodd" d="M22 4.16699C11.8789 4.16699 3.66663 12.3792 3.66663 22.5003C3.66663 32.6214 11.8789 40.8337 22 40.8337C32.1012 40.8337 40.3333 32.6214 40.3333 22.5003C40.3333 12.3792 32.1012 4.16699 22 4.16699ZM34.1095 12.6178C36.2968 15.2823 37.6091 18.6826 37.6489 22.3611C37.1319 22.2617 31.962 21.2079 26.7523 21.864C26.633 21.6055 26.5336 21.3271 26.4143 21.0488C26.0961 20.2932 25.7382 19.5177 25.3803 18.782C31.1468 16.4356 33.7715 13.0553 34.1095 12.6178ZM22 6.87126C25.9768 6.87126 29.6157 8.36258 32.3796 10.8084C32.1012 11.206 29.7349 14.3677 24.1674 16.4555C21.6023 11.7429 18.7588 7.88536 18.3214 7.28883C19.4945 7.01045 20.7274 6.87126 22 6.87126ZM15.3387 8.3427C15.7563 8.89945 18.5401 12.7769 21.1449 17.3901C13.8275 19.3387 7.36512 19.299 6.66916 19.299C7.68324 14.4472 10.9642 10.4107 15.3387 8.3427ZM6.33112 22.5202C6.33112 22.3611 6.33112 22.2021 6.33112 22.043C7.00719 22.0629 14.603 22.1623 22.4175 19.816C22.8749 20.6909 23.2924 21.5856 23.6901 22.4805C23.4913 22.5401 23.2725 22.5998 23.0737 22.6594C15.0007 25.2643 10.7057 32.3828 10.3478 32.9794C7.86221 30.2154 6.33112 26.5368 6.33112 22.5202ZM22 38.1692C18.381 38.1692 15.0404 36.9363 12.3958 34.8684C12.6742 34.2917 15.8557 28.1673 24.6843 25.0853C24.7241 25.0654 24.744 25.0654 24.7838 25.0455C26.9909 30.7523 27.8857 35.5444 28.1243 36.9164C26.2353 37.7317 24.1674 38.1692 22 38.1692ZM30.7292 35.4848C30.5701 34.5303 29.735 29.9569 27.6869 24.3297C32.5983 23.5542 36.8933 24.8268 37.4302 25.0058C36.7541 29.3604 34.2487 33.1186 30.7292 35.4848Z" fill="#323538"/>
</svg>
