<svg width="18" height="20" viewBox="0 0 18 20" fill="none" xmlns="http://www.w3.org/2000/svg">
<path d="M15.7777 7.89479V16.3158H14.6666V15.2632H13.5555V14.2106H12.4444V13.1579H11.3333V12.1053H6.88883V13.1579H5.77772V14.2106H4.66661V15.2632H3.5555V16.3158H2.44439V3.68426H3.5555V2.63163H10.2222V0.526367H1.33328V1.579H0.222168V19.4737H4.66661V18.4211H5.77772V17.3685H6.88883V16.3158H7.99995V15.2632H10.2222V16.3158H11.3333V17.3685H12.4444V18.4211H13.5555V19.4737H17.9999V7.89479H15.7777Z" fill="#15181B"/>
<path d="M15.7761 2.64433V0.539062H13.5539V2.64433H11.3317V4.74959H13.5539V6.85485H15.7761V4.74959H17.9983V2.64433H15.7761Z" fill="#15181B"/>
</svg>
