<svg width="44" height="45" viewBox="0 0 44 45" fill="none" xmlns="http://www.w3.org/2000/svg">
<path fill-rule="evenodd" clip-rule="evenodd" d="M22 4.61914C11.8708 4.61914 3.66663 12.8233 3.66663 22.9525C3.66663 31.065 8.91454 37.9171 16.202 40.3462C17.1187 40.5066 17.4625 39.9566 17.4625 39.4754C17.4625 39.04 17.4395 37.5962 17.4395 36.0608C12.8333 36.9087 11.6416 34.9379 11.275 33.9066C11.0687 33.3796 10.175 31.7525 9.39579 31.3171C8.75413 30.9733 7.83746 30.1254 9.37288 30.1025C10.8166 30.0796 11.8479 31.4316 12.1916 31.9816C13.8416 34.7546 16.477 33.9754 17.5312 33.4941C17.6916 32.3025 18.1729 31.5004 18.7 31.0421C14.6208 30.5837 10.3583 29.0025 10.3583 21.99C10.3583 19.9962 11.0687 18.3462 12.2375 17.0629C12.0541 16.6046 11.4125 14.7254 12.4208 12.2046C12.4208 12.2046 13.9562 11.7233 17.4625 14.0837C18.9291 13.6712 20.4875 13.465 22.0458 13.465C23.6041 13.465 25.1625 13.6712 26.6291 14.0837C30.1354 11.7004 31.6708 12.2046 31.6708 12.2046C32.6791 14.7254 32.0375 16.6046 31.8541 17.0629C33.0229 18.3462 33.7333 19.9733 33.7333 21.99C33.7333 29.0254 29.4479 30.5837 25.3687 31.0421C26.0333 31.615 26.6062 32.715 26.6062 34.4337C26.6062 36.8858 26.5833 38.8566 26.5833 39.4754C26.5833 39.9566 26.927 40.5296 27.8437 40.3462C31.4832 39.1176 34.6458 36.7785 36.8863 33.6583C39.1267 30.538 40.3323 26.7938 40.3333 22.9525C40.3333 12.8233 32.1291 4.61914 22 4.61914Z" fill="#323538"/>
</svg>
