<svg width="44" height="45" viewBox="0 0 44 45" fill="none" xmlns="http://www.w3.org/2000/svg">
<path d="M38.5 8.42647V36.5735C38.5 37.2171 38.2444 37.8343 37.7893 38.2893C37.3343 38.7444 36.7171 39 36.0735 39H7.92647C7.28293 39 6.66575 38.7444 6.2107 38.2893C5.75565 37.8343 5.5 37.2171 5.5 36.5735V8.42647C5.5 7.78293 5.75565 7.16575 6.2107 6.7107C6.66575 6.25565 7.28293 6 7.92647 6H36.0735C36.7171 6 37.3343 6.25565 37.7893 6.7107C38.2444 7.16575 38.5 7.78293 38.5 8.42647ZM15.2059 18.6176H10.3529V34.1471H15.2059V18.6176ZM15.6426 13.2794C15.6452 12.9123 15.5754 12.5483 15.4373 12.2082C15.2992 11.8681 15.0954 11.5585 14.8377 11.2971C14.5799 11.0358 14.2732 10.8277 13.935 10.6849C13.5968 10.5421 13.2339 10.4672 12.8668 10.4647H12.7794C12.0329 10.4647 11.317 10.7613 10.7891 11.2891C10.2613 11.817 9.96471 12.5329 9.96471 13.2794C9.96471 14.0259 10.2613 14.7418 10.7891 15.2697C11.317 15.7976 12.0329 16.0941 12.7794 16.0941C13.1465 16.1031 13.5118 16.0398 13.8544 15.9076C14.197 15.7754 14.5102 15.577 14.7761 15.3237C15.042 15.0704 15.2554 14.7672 15.4041 14.4314C15.5528 14.0957 15.6338 13.7339 15.6426 13.3668V13.2794ZM33.6471 24.7129C33.6471 20.0444 30.6771 18.2294 27.7265 18.2294C26.7604 18.181 25.7985 18.3868 24.9368 18.8262C24.075 19.2656 23.3435 19.9232 22.8153 20.7335H22.6794V18.6176H18.1176V34.1471H22.9706V25.8874C22.9004 25.0414 23.1669 24.202 23.7121 23.5514C24.2573 22.9008 25.0372 22.4916 25.8824 22.4126H26.0668C27.61 22.4126 28.7553 23.3832 28.7553 25.8291V34.1471H33.6082L33.6471 24.7129Z" fill="#323538"/>
</svg>
