<svg width="18" height="20" viewBox="0 0 18 20" fill="none" xmlns="http://www.w3.org/2000/svg">
<path d="M15.7782 7.80385V16.2249H14.6671V15.1723H13.556V14.1196H12.4449V13.067H11.3338V12.0144H6.88932V13.067H5.77821V14.1196H4.6671V15.1723H3.55599V16.2249H2.44488V3.59332H3.55599V2.54069H10.2227V0.435425H1.33377V1.48806H0.222656V19.3828H4.6671V18.3302H5.77821V17.2775H6.88932V16.2249H8.00043V15.1723H10.2227V16.2249H11.3338V17.2775H12.4449V18.3302H13.556V19.3828H18.0004V7.80385H15.7782Z" fill="#15181B"/>
<path d="M15.7766 2.55338V0.44812H13.5544V2.55338H11.3321V4.65865H13.5544V6.76391H15.7766V4.65865H17.9988V2.55338H15.7766Z" fill="#15181B"/>
</svg>
