<svg width="23" height="18" viewBox="0 0 23 18" fill="none" xmlns="http://www.w3.org/2000/svg">
<path d="M18.5513 2.34375C18.5826 2.34375 18.5982 2.34375 18.5982 2.34375C19.7857 4.09375 20.6451 5.96875 21.1763 7.96875C21.7388 9.9375 21.9107 12.0469 21.692 14.2969C21.692 14.3281 21.6763 14.3438 21.6451 14.3438C20.7701 15 19.8951 15.5469 19.0201 15.9844C18.1451 16.3906 17.2701 16.7344 16.3951 17.0156C16.3951 17.0156 16.3795 17 16.3482 16.9688C15.942 16.4062 15.5826 15.8281 15.2701 15.2344C15.2388 15.2031 15.2545 15.1719 15.317 15.1406C15.5982 15.0469 15.8638 14.9375 16.1138 14.8125C16.3951 14.6875 16.6763 14.5469 16.9576 14.3906C17.0201 14.3594 17.0201 14.3125 16.9576 14.25C16.8951 14.2188 16.8326 14.1875 16.7701 14.1562C16.7076 14.0938 16.6607 14.0469 16.6295 14.0156C16.5982 13.9844 16.567 13.9844 16.5357 14.0156C14.8482 14.7969 13.0982 15.1875 11.2857 15.1875C9.47321 15.1875 7.70758 14.7969 5.98883 14.0156C5.95758 13.9844 5.94196 13.9844 5.94196 14.0156C5.87946 14.0469 5.81696 14.0938 5.75446 14.1562C5.69196 14.1875 5.64508 14.2188 5.61383 14.25C5.55133 14.3125 5.55133 14.3594 5.61383 14.3906C6.14508 14.6719 6.69196 14.9219 7.25446 15.1406C7.28571 15.1719 7.30133 15.2031 7.30133 15.2344C6.98883 15.8281 6.62946 16.4062 6.22321 16.9688C6.19196 17 6.16071 17.0156 6.12946 17.0156C5.28571 16.7344 4.42633 16.3906 3.55133 15.9844C2.67633 15.5469 1.80133 15 0.926331 14.3438C0.895081 14.3438 0.879456 14.3281 0.879456 14.2969C0.691956 12.3281 0.816956 10.3594 1.25446 8.39062C1.72321 6.39062 2.62946 4.375 3.97321 2.34375C3.97321 2.34375 3.98883 2.34375 4.02008 2.34375C5.36383 1.71875 6.78571 1.26562 8.28571 0.984375C8.31696 0.984375 8.33258 1 8.33258 1.03125C8.55133 1.40625 8.73883 1.76563 8.89508 2.10938C10.4888 1.89062 12.0826 1.89062 13.6763 2.10938C13.8326 1.76563 14.0201 1.40625 14.2388 1.03125C14.2388 1 14.2545 0.984375 14.2857 0.984375C15.7857 1.26562 17.2076 1.71875 18.5513 2.34375ZM7.81696 11.9062C8.34821 11.9062 8.78571 11.7031 9.12946 11.2969C9.50446 10.8906 9.69196 10.3906 9.69196 9.79688C9.69196 9.20312 9.50446 8.70312 9.12946 8.29688C8.78571 7.89062 8.34821 7.6875 7.81696 7.6875C7.28571 7.6875 6.83258 7.89062 6.45758 8.29688C6.08258 8.70312 5.89508 9.20312 5.89508 9.79688C5.89508 10.3906 6.08258 10.8906 6.45758 11.2969C6.83258 11.7031 7.28571 11.9062 7.81696 11.9062ZM14.7545 11.9062C15.2857 11.9062 15.7388 11.7031 16.1138 11.2969C16.4888 10.8906 16.6763 10.3906 16.6763 9.79688C16.6763 9.20312 16.4888 8.70312 16.1138 8.29688C15.7388 7.89062 15.2857 7.6875 14.7545 7.6875C14.2545 7.6875 13.817 7.89062 13.442 8.29688C13.067 8.70312 12.8795 9.20312 12.8795 9.79688C12.8795 10.3906 13.067 10.8906 13.442 11.2969C13.817 11.7031 14.2545 11.9062 14.7545 11.9062Z" fill="#15181B"/>
</svg>
