<svg width="21" height="20" viewBox="0 0 21 20" fill="none" xmlns="http://www.w3.org/2000/svg">
<path d="M9.14519 0.0692153C4.54519 0.569215 0.845187 4.26922 0.345187 8.76922C-0.154813 13.4692 2.54519 17.6692 6.64519 19.2692C6.94519 19.3692 7.24519 19.1692 7.24519 18.7692V17.1692C7.24519 17.1692 6.84519 17.2692 6.34519 17.2692C4.94519 17.2692 4.34519 16.0692 4.24519 15.3692C4.14519 14.9692 3.94519 14.6692 3.64519 14.3692C3.34519 14.2692 3.24519 14.2692 3.24519 14.1692C3.24519 13.9692 3.54519 13.9692 3.64519 13.9692C4.24519 13.9692 4.74519 14.6692 4.94519 14.9692C5.44519 15.7692 6.04519 15.9692 6.34519 15.9692C6.74519 15.9692 7.04519 15.8692 7.24519 15.7692C7.34519 15.0692 7.64519 14.3692 8.24519 13.9692C5.94519 13.4692 4.24519 12.1692 4.24519 9.96922C4.24519 8.86922 4.74519 7.76922 5.44519 6.96922C5.34519 6.76922 5.24519 6.26922 5.24519 5.56922C5.24519 5.16922 5.24519 4.56922 5.54519 3.96922C5.54519 3.96922 6.94519 3.96922 8.34519 5.26922C8.84519 5.06922 9.54519 4.96922 10.2452 4.96922C10.9452 4.96922 11.6452 5.06922 12.2452 5.26922C13.5452 3.96922 15.0452 3.96922 15.0452 3.96922C15.2452 4.56922 15.2452 5.16922 15.2452 5.56922C15.2452 6.36922 15.1452 6.76922 15.0452 6.96922C15.7452 7.76922 16.2452 8.76922 16.2452 9.96922C16.2452 12.1692 14.5452 13.4692 12.2452 13.9692C12.8452 14.4692 13.2452 15.3692 13.2452 16.2692V18.8692C13.2452 19.1692 13.5452 19.4692 13.9452 19.3692C17.6452 17.8692 20.2452 14.2692 20.2452 10.0692C20.2452 4.06922 15.1452 -0.630785 9.14519 0.0692153Z" fill="#15181B"/>
</svg>
