<svg width="24" height="25" viewBox="0 0 24 25" fill="none" xmlns="http://www.w3.org/2000/svg">
<path d="M11 6.90906L10 6.90906L10 7.90906L9 7.90906L9 9.90906L7 9.90906L7 11.9091L5 11.9091L5 13.9091L3 13.9091L3 19.9091L21 19.9091L21 13.9091L20 13.9091L19 13.9091L19 11.9091L17 11.9091L17 9.90906L15 9.90906L15 7.90906L14 7.90906L14 6.90906L13 6.90906L13 5.90906L11 5.90906L11 6.90906ZM13 11.9091L15 11.9091L15 13.9091L17 13.9091L17 15.9091L19 15.9091L19 17.9091L5 17.9091L5 15.9091L7 15.9091L7 13.9091L9 13.9091L9 11.9091L11 11.9091L11 9.90906L13 9.90906L13 11.9091Z" fill="#2DBA4F"/>
</svg>
