<svg width="19" height="18" viewBox="0 0 19 18" fill="none" xmlns="http://www.w3.org/2000/svg">
<path d="M5.24518 0C2.48818 0 0.245178 2.243 0.245178 5V13C0.245178 15.757 2.48818 18 5.24518 18H13.2452C16.0022 18 18.2452 15.757 18.2452 13V5C18.2452 2.243 16.0022 0 13.2452 0H5.24518ZM5.24518 2H13.2452C14.8992 2 16.2452 3.346 16.2452 5V13C16.2452 14.654 14.8992 16 13.2452 16H5.24518C3.59118 16 2.24518 14.654 2.24518 13V5C2.24518 3.346 3.59118 2 5.24518 2ZM14.2452 3C13.98 3 13.7256 3.10536 13.5381 3.29289C13.3505 3.48043 13.2452 3.73478 13.2452 4C13.2452 4.26522 13.3505 4.51957 13.5381 4.70711C13.7256 4.89464 13.98 5 14.2452 5C14.5104 5 14.7647 4.89464 14.9523 4.70711C15.1398 4.51957 15.2452 4.26522 15.2452 4C15.2452 3.73478 15.1398 3.48043 14.9523 3.29289C14.7647 3.10536 14.5104 3 14.2452 3ZM9.24518 4C6.48818 4 4.24518 6.243 4.24518 9C4.24518 11.757 6.48818 14 9.24518 14C12.0022 14 14.2452 11.757 14.2452 9C14.2452 6.243 12.0022 4 9.24518 4ZM9.24518 6C10.8992 6 12.2452 7.346 12.2452 9C12.2452 10.654 10.8992 12 9.24518 12C7.59118 12 6.24518 10.654 6.24518 9C6.24518 7.346 7.59118 6 9.24518 6Z" fill="#15181B"/>
</svg>
