<svg width="19" height="18" viewBox="0 0 19 18" fill="none" xmlns="http://www.w3.org/2000/svg">
<path d="M2.24518 0C1.14018 0 0.245178 0.895 0.245178 2V16C0.245178 17.105 1.14018 18 2.24518 18H16.2452C17.3502 18 18.2452 17.105 18.2452 16V2C18.2452 0.895 17.3502 0 16.2452 0H2.24518ZM2.24518 2H16.2452V16H2.24518V2ZM5.02448 3.31641C4.16748 3.31641 3.65338 3.83158 3.65338 4.51758C3.65338 5.20358 4.16754 5.7168 4.93854 5.7168C5.79554 5.7168 6.30963 5.20358 6.30963 4.51758C6.30963 3.83158 5.79548 3.31641 5.02448 3.31641ZM3.72174 7V14H6.24518V7H3.72174ZM8.32721 7V14H10.8506V10.1738C10.8506 9.03483 11.6633 8.87109 11.9073 8.87109C12.1513 8.87109 12.8038 9.11583 12.8038 10.1738V14H15.2452V10.1738C15.2452 7.97683 14.2689 7 13.0479 7C11.8269 7 11.1756 7.40656 10.8506 7.97656V7H8.32721Z" fill="#15181B"/>
</svg>
