<svg width="50" height="50" viewBox="0 0 50 50" fill="none" xmlns="http://www.w3.org/2000/svg">
<rect x="1.125" y="1.125" width="47.75" height="47.75" rx="23.875" fill="#FAFCFE"/>
<rect x="1.125" y="1.125" width="47.75" height="47.75" rx="23.875" stroke="#C9C9C9" stroke-width="2.25"/>
<path d="M24.8004 35.125C23.3933 35.125 22.0148 34.9254 20.6648 34.5261C19.3338 34.1077 18.212 33.5373 17.2993 32.8148L18.8965 29.9342C19.619 30.5236 20.4937 30.9989 21.5204 31.3602C22.5472 31.7215 23.6215 31.9021 24.7433 31.9021C26.0743 31.9021 27.1106 31.6359 27.8521 31.1035C28.5937 30.5521 28.9645 29.8106 28.9645 28.8789C28.9645 27.9662 28.6222 27.2437 27.9377 26.7113C27.2532 26.1789 26.1504 25.9127 24.6292 25.9127H22.8039V23.3743L28.5081 16.5863L28.993 17.9838H18.269V14.875H31.8736V17.3563L26.1694 24.1444L24.23 23.0035H25.3423C27.7951 23.0035 29.63 23.5549 30.8469 24.6577C32.0828 25.7415 32.7007 27.1391 32.7007 28.8504C32.7007 29.9722 32.4155 31.0085 31.8451 31.9592C31.2747 32.9099 30.4 33.6799 29.2211 34.2694C28.0613 34.8398 26.5877 35.125 24.8004 35.125Z" fill="#C9C9C9"/>
</svg>
