<svg width="50" height="50" viewBox="0 0 50 50" fill="none" xmlns="http://www.w3.org/2000/svg">
<rect x="1.125" y="1.125" width="47.75" height="47.75" rx="23.875" fill="#FAFCFE"/>
<rect x="1.125" y="1.125" width="47.75" height="47.75" rx="23.875" stroke="#3062D4" stroke-width="2.25"/>
<path d="M18.4147 35.125V32.6437L25.9023 25.1141C26.5307 24.4866 26.9976 23.9352 27.3028 23.4599C27.6081 22.9845 27.8056 22.5472 27.8954 22.1479C28.0031 21.7296 28.057 21.3398 28.057 20.9785C28.057 20.0658 27.7607 19.3623 27.1682 18.868C26.5756 18.3546 25.7048 18.0979 24.5556 18.0979C23.6398 18.0979 22.8049 18.269 22.0508 18.6113C21.3146 18.9535 20.6771 19.4764 20.1385 20.1799L17.6875 18.1835C18.4237 17.1377 19.4113 16.3296 20.6502 15.7592C21.9071 15.1697 23.3077 14.875 24.8519 14.875C26.2165 14.875 27.4016 15.1127 28.4071 15.588C29.4306 16.0444 30.2117 16.7004 30.7503 17.556C31.307 18.4116 31.5853 19.4289 31.5853 20.6077C31.5853 21.2542 31.5045 21.9007 31.3429 22.5472C31.1813 23.1746 30.876 23.8401 30.4271 24.5437C29.9782 25.2472 29.3229 26.0363 28.461 26.9109L22.0238 33.3852L21.2966 31.9877H32.3125V35.125H18.4147Z" fill="#3062D4"/>
</svg>
